PathFileType	4	(X/Y/Z)	Run_400 02
DataRate	CameraRate	NumFrames	NumMarkers	Units	OrigDataRate	OrigDataStartFrame	OrigNumFrames
100	100	4	42	mm	100	166	128
Frame#	Time	LASI			RASI			LPSI			RPSI			RTH1			RTH2			RTH3			LTH1			LTH2			LTH3			RTB1			RTB2			RTB3			LTB1			LTB2			LTB3			RCAL			RTOE			RMT5			LCAL			LTOE			LMT5			LACR			RACR			CLAV			C7			RUA1			RUA2			RUA3			RLEL			RMEL			LUA1			LUA2			LUA3			LLEL			LMEL			RFAsuperior			RFAradius			RFAulna			LFAsuperior			LFAradius			LFAulna			
		X1	Y1	Z1	X2	Y2	Z2	X3	Y3	Z3	X4	Y4	Z4	X5	Y5	Z5	X6	Y6	Z6	X7	Y7	Z7	X8	Y8	Z8	X9	Y9	Z9	X10	Y10	Z10	X11	Y11	Z11	X12	Y12	Z12	X13	Y13	Z13	X14	Y14	Z14	X15	Y15	Z15	X16	Y16	Z16	X17	Y17	Z17	X18	Y18	Z18	X19	Y19	Z19	X20	Y20	Z20	X21	Y21	Z21	X22	Y22	Z22	X23	Y23	Z23	X24	Y24	Z24	X25	Y25	Z25	X26	Y26	Z26	X27	Y27	Z27	X28	Y28	Z28	X29	Y29	Z29	X30	Y30	Z30	X31	Y31	Z31	X32	Y32	Z32	X33	Y33	Z33	X34	Y34	Z34	X35	Y35	Z35	X36	Y36	Z36	X37	Y37	Z37	X38	Y38	Z38	X39	Y39	Z39	X40	Y40	Z40	X41	Y41	Z41	X42	Y42	Z42	

158	2.34	878.1168740000001	933.1702749999999	-439.880314	865.648816	946.058615	-198.938431	716.0509510000001	989.83055	-377.324802	707.085674	996.888393	-280.025769	801.89003	706.519661	-147.425057	862.368712	622.884197	-162.64842	807.106904	529.931867	-187.75825	905.458453	762.946117	-479.58373	1012.446412	707.258418	-457.380223	1019.394593	594.847128	-445.662647	783.292987	325.60093	-267.952549	711.348948	270.796525	-229.666498	663.898183	180.410222	-303.177944	986.938353	454.407836	-370.240372	898.459131	472.771965	-438.611385	797.772687	413.285212	-383.377958	510.506232	132.397034	-335.333583	724.227089	65.671795	-325.605694	658.970005	50.374714	-228.010068	656.209258	476.435568	-380.579974	669.49103	257.621234	-375.819498	651.339903	298.36152	-476.635855	899.5550040000001	1424.755135	-473.17169	910.814454	1412.005879	-172.039359	987.308774	1339.046081	-308.937322	851.203817	1449.836453	-314.963106	886.955699	1310.771642	-68.444035	820.40228	1247.019644	-65.247264	873.064439	1200.314143	-6.38793	858.807281	1140.812936	36.1369	815.053061	1105.048005	-15.897108	804.7407470000001	1346.188629	-556.893779	741.0821120000001	1307.498915	-515.075239	750.4346410000001	1272.401719	-597.627752	694.195457	1210.576391	-627.760992	660.227048	1191.228791	-561.748429	965.891554	1113.499088	-5.135152	1053.202206	1088.182995	-109.283939	1043.952861	1027.804457	-71.46280400000001	801.301506	1156.755705	-603.325596	876.559518	1059.019486	-524.716954	852.3458000000001	1048.190487	-592.894799	
159	2.35	880.3990680000001	939.657462	-437.195157	863.932775	948.713375	-197.092118	716.289659	996.341875	-378.057856	706.82817	1001.301187	-280.188901	787.999853	709.569763	-149.108135	842.050558	622.110195	-162.82703	781.085235	532.6684330000001	-189.390099	911.757696	776.849135	-479.996862	1020.377139	728.112289	-455.447553	1033.501906	615.239659	-444.849927	749.476049	328.135534	-267.915867	676.15729	276.271059	-229.04975	627.265371	185.403389	-301.929185	1011.285108	468.690703	-368.827511	920.043826	478.744399	-438.018149	826.592666	408.260235	-380.961148	474.310908	141.552739	-333.1594	684.058283	65.51127200000001	-325.506241	618.243303	50.101686	-227.815046	677.857703	455.898023	-378.826288	718.568811	240.43614	-372.591711	694.59745	277.699414	-473.398202	896.654724	1430.065704	-473.646254	913.157788	1419.731042	-173.715929	987.265959	1345.185106	-310.883234	850.93309	1455.47199	-315.178829	894.2666400000001	1318.915246	-69.475416	829.725903	1255.092249	-60.144225	885.207163	1208.216357	-6.997422	873.4840830000001	1148.295468	35.988635	829.932992	1110.880894	-15.430036	798.2325939999999	1355.426771	-555.108522	735.656476	1316.879802	-511.59452	741.248438	1284.217925	-595.635946	682.997797	1223.912625	-625.068474	652.5748	1203.924908	-558.354332	980.809908	1128.017382	-8.464124	1065.810908	1108.916299	-115.408765	1061.685036	1047.561325	-77.879966	789.467085	1168.097998	-604.56297	865.970829	1069.795799	-527.684024	838.04354	1056.471214	-593.527322	
160	2.36	882.077108	946.1709990000001	-435.315654	862.629439	952.265876	-195.002317	717.119554	1003.902538	-378.154243	707.052716	1006.062445	-280.13023	774.5418979999999	714.439351	-150.92129	823.105521	624.039256	-163.583363	756.063902	538.401473	-190.393557	917.584249	791.1111069999999	-480.267889	1026.558067	748.585858	-453.941541	1044.935056	635.094844	-444.355937	716.879214	332.934967	-267.483599	642.235054	284.088205	-228.004382	592.306527	192.384189	-300.07476	1033.506169	482.356405	-367.713507	940.480688	483.604817	-436.923996	855.391687	402.828535	-377.770165	440.50074	152.563072	-330.74743	644.567905	65.062825	-325.274509	578.02032	49.887078	-227.571546	701.174339	433.331344	-375.914691	769.809433	225.01876	-368.749114	740.177403	258.059161	-469.572353	893.938996	1436.13043	-474.19429	915.8478689999999	1428.05807	-175.841265	987.5766180000001	1352.039323	-313.326162	851.09294	1461.83456	-315.613083	900.266371	1328.17379	-70.437504	838.464248	1264.30001	-56.427011	896.449436	1217.316629	-7.782958	886.914136	1156.944853	35.633319	843.541217	1118.195057	-15.360172	792.215896	1365.414968	-553.228595	730.4668370000001	1327.024519	-507.938501	732.793738	1296.538912	-593.280684	672.596867	1237.70059	-622.046737	645.535406	1217.149668	-554.844389	993.970957	1143.165589	-11.635628	1076.307492	1130.170669	-121.006295	1076.815151	1067.911001	-84.382946	778.256586	1180.02442	-605.8203130000001	856.378153	1081.459773	-530.534437	824.668896	1065.700074	-593.65055	
161	2.37	883.920153	953.2500240000001	-434.005863	862.061041	956.4803450000001	-193.12633	718.560142	1012.345142	-378.012218	708.277059	1011.560726	-279.922456	762.660248	721.0249669999999	-152.353828	806.61595	628.3550300000001	-164.776356	733.2376860000001	546.7906410000001	-190.266545	922.705289	805.49658	-480.571668	1031.075863	767.876069	-452.962127	1053.658324	653.517758	-444.019739	686.140702	339.908154	-266.300674	610.209538	294.023175	-226.319267	559.878532	201.243219	-297.596609	1053.696418	494.93533	-366.66981	959.89129	486.841704	-435.415462	884.532885	396.984837	-374.291094	409.929661	165.559729	-328.2913	605.4199149999999	64.176508	-324.845634	538.076964	49.74466	-227.39261	726.825032	409.190169	-372.069735	822.3883080000001	211.864246	-364.133703	787.519011	239.772954	-465.009068	891.385192	1442.92468	-474.693673	918.597885	1436.744538	-178.191742	988.125679	1359.48764	-316.167534	851.573346	1468.695913	-316.336775	905.5850809999999	1338.065128	-71.304637	846.303507	1274.198598	-54.361307	906.7261140000001	1227.335727	-8.585742	899.157202	1166.46245	35.261443	855.726368	1126.595935	-15.230003	786.931424	1375.922221	-551.305393	726.088268	1337.873828	-504.170843	725.444699	1308.996126	-590.579035	663.283757	1251.560041	-618.665975	638.8913680000001	1230.64494	-551.154417	1005.448197	1158.477454	-14.729007	1084.799349	1151.181931	-126.111455	1089.286361	1088.239402	-91.000754	767.882015	1192.020061	-606.614166	847.826207	1093.398855	-532.819109	812.513324	1075.40781	-593.052406	
